<?xml version="1.0" encoding="utf-8"?>
<!-- Generator: Adobe Illustrator 23.0.4, SVG Export Plug-In . SVG Version: 6.00 Build 0)  -->
<svg version="1.1" id="Layer_1" xmlns="http://www.w3.org/2000/svg" xmlns:xlink="http://www.w3.org/1999/xlink" x="0px" y="0px"
	 viewBox="0 0 158 102" style="enable-background:new 0 0 158 102;" xml:space="preserve">
<style type="text/css">
	.st0{fill:#EE3E42;}
	.st1{fill:#FFFFFF;}
	.st2{fill:#1C3664;}
</style>
<g>
	<path class="st0" d="M26.4,24.8"/>
	<path class="st1" d="M52.3,35.3l-0.9,1.1c0,0-2.9-6.1-11.7-9.9c-7.5-3.3-13.3-1.8-13.3-1.8s0.9-0.7,2.2-1.9L12,36.9l0,0l1.4-1.1
		c0,0,5.2-1,12.5,5.2c7,5.8,9.7,14.1,9.7,14.1l-3.4,4.1L52.3,35.3L52.3,35.3z M40.5,49.2c0,0-2.3-6.8-10.4-12.8
		c-5.7-4.3-12.8-3.9-12.8-3.9l5-4.2c0,0,5.5-1.7,13.2,2.5C43.1,34.9,46.6,42,46.6,42L40.5,49.2z"/>
	<path class="st0" d="M22.7,44.1L12,36.9l-4.1,3.4c0,0,6.7,0.9,12.1,5.4c7.9,6.6,9.5,16.6,9.5,16.6l2.7-3.2l0,0L22.7,44.1z"/>
	<path class="st0" d="M25.9,40.9c-7.4-6.2-12.5-5.2-12.5-5.2L12,36.9l10.6,7.2l9.5,15l0,0l3.4-4.1C35.6,55,32.9,46.8,25.9,40.9z"/>
	<path class="st0" d="M35.4,30.8c-7.6-4.2-13.2-2.5-13.2-2.5l-5,4.2c0,0,7.1-0.3,12.8,3.9c8.1,6,10.4,12.8,10.4,12.8l6-7.1
		C46.6,42,43.1,34.9,35.4,30.8z"/>
	<path class="st2" d="M44.7,9.1c0,0.1-11.2,9.6-16.1,13.7c-1.4,1.2-2.2,1.9-2.2,1.9s5.8-1.5,13.3,1.8c8.8,3.8,11.7,9.9,11.7,9.9
		l0.9-1.1l20.9-24.6C57,3.9,46.3,8.4,44.7,9.1z"/>
	<path class="st2" d="M92.7,67c-0.4,0-9.8-0.1-9.8-0.1v-9.7c0,0,9.7,0,9.9,0c0.4,0,5,0.1,5,4.8C97.7,66.7,94.2,67,92.7,67
		 M82.8,39.8c0,0,7.5,0,8.3,0c1.2,0,4.3,0.1,4.3,3.9c0,3.8-3.4,3.8-4.4,3.8c-0.6,0-8.2,0-8.2,0V39.8z M103,51
		c2.7-2.2,4.2-5.2,4.2-8.5c0-7.8-6.6-12.5-13-12.5c-5.3,0-22.4,0-22.4,0v46.9c0,0,10.5,0,24.8,0c6.9,0,12.6-5.5,12.6-15
		C109.2,57.1,106.8,53.4,103,51z"/>
	<path class="st2" d="M59,45v13.7H48 M60.1,30L20.4,76.8h13.7l6.5-8.3h18.3v8.3h10.5V30H60.1z"/>
	<path class="st1" d="M57.1,23.5c0,0-1.4-0.8-2.8-1.5c0.6-0.9,1.3-1.8,1.3-1.8c0,0,0,0,0,0c0,0,0,0,0,0c0,0-0.1,0-0.1,0
		c0,0-1.7,0.5-3.2,1.1c-1.4-0.5-2.7-0.9-2.8-0.9c0,0-0.1,0-0.1,0c0,0,0,0,0,0.1c0,0,0,0,0,0c0,0,0.2,1,0.4,1.9
		c-1.5,0.8-3.2,1.9-3.2,1.9c0,0,0,0,0,0.1c0,0,0,0,0,0c0,0,0,0.1,0.1,0.1c0,0,2.1-0.1,3.6-0.2c0.3,1.7,0.5,3.2,0.5,3.2
		c0,0,0,0.1,0.1,0.1c0,0,0.1,0,0.1,0c0,0,1-1.8,2.1-3.4c1.4-0.1,4.2-0.3,4.2-0.3C57.1,23.6,57.2,23.6,57.1,23.5
		C57.2,23.6,57.2,23.6,57.1,23.5C57.2,23.5,57.2,23.5,57.1,23.5"/>
	<path class="st1" d="M67.9,14.7c0,0-1.5-0.6-3-1.2c0.6-0.8,1.1-1.7,1.1-1.7c0,0,0,0,0,0c0,0,0,0,0,0c0,0-0.1,0-0.1,0
		c0,0-1.8,0.5-3.4,1.1c-1.5-0.4-3-0.7-3-0.7c0,0-0.1,0-0.1,0c0,0,0,0,0,0c0,0,0,0,0,0c0,0,0.4,0.6,0.8,1.7c-1.5,0.9-3.1,2.1-3.1,2.1
		c0,0,0,0,0,0.1c0,0,0,0,0,0c0,0,0.1,0.1,0.1,0.1c0,0,1.8-0.3,3.6-0.4c0.4,1.6,0.6,2.8,0.6,2.8c0,0,0,0.1,0.1,0.1c0,0,0.1,0,0.1,0
		c0,0,1.4-2.1,2-3.1c2.1-0.2,4.3-0.7,4.4-0.7C67.9,14.8,67.9,14.8,67.9,14.7C67.9,14.8,67.9,14.8,67.9,14.7
		C67.9,14.7,67.9,14.7,67.9,14.7"/>
	<path class="st1" d="M44.3,18.9C44.3,18.9,44.3,18.8,44.3,18.9c-0.1-0.1-1.3-0.2-2.7-0.3c0.6-0.7,1.2-1.5,1.2-1.5c0,0,0,0,0-0.1
		c0,0,0,0,0-0.1c0,0-0.1,0-0.1,0c0,0-1.7,0.8-3.2,1.6c-0.9,0-3,0.1-3,0.1c0,0-0.1,0-0.1,0.1c0,0,0,0,0,0c0,0,0,0.1,0,0.1
		c0,0,0.4,0.3,0.8,1c-1.2,0.7-3.9,2.2-3.9,2.2c0,0,0,0,0,0.1c0,0,0,0,0,0c0,0,0.1,0.1,0.1,0c2.2-0.6,3.2-0.8,3.9-1
		c0,0,0.2-0.1,0.4-0.1c0.3,1.1,0.3,1.9,0.3,2c0,0,0,0.1,0.1,0.1c0,0,0.1,0,0.1,0c0,0,1.8-2.3,2.1-2.7C42.3,19.7,44.3,19,44.3,18.9
		C44.3,19,44.3,19,44.3,18.9C44.3,18.9,44.3,18.9,44.3,18.9"/>
	<path class="st1" d="M55.1,11.7C55.1,11.6,55.1,11.6,55.1,11.7c-0.1-0.1-1.6-0.1-2.8-0.2c0.6-0.8,1.3-1.6,1.3-1.6c0,0,0,0,0-0.1
		c0,0,0,0,0-0.1c0,0-0.1,0-0.1,0c0,0-1.9,0.9-3.5,1.7c-1.7,0-2.9,0.2-2.9,0.2c0,0-0.1,0-0.1,0.1c0,0,0,0.1,0.1,0.1
		c0,0,0.5,0.1,0.9,0.8c-1.3,0.9-2.7,1.9-2.7,1.9c0,0,0,0,0,0.1c0,0,0,0,0,0c0,0,0.1,0.1,0.1,0c0,0,3.1-0.8,3.1-0.8
		c0.2,1,0.3,1.9,0.3,1.9c0,0,0,0.1,0.1,0.1c0,0,0.1,0,0.1,0c0,0,1.8-2.3,2.1-2.7C53,12.5,55,11.8,55.1,11.7
		C55.1,11.7,55.1,11.7,55.1,11.7C55.1,11.7,55.1,11.7,55.1,11.7"/>
	<path class="st2" d="M142.8,36.4c2.1,3.1,3.5,6.5,3.6,10.4H136c-0.6-2.8-3.1-5.6-5.9-6.2c-3-1-6.3,0.2-8.3,2.6
		c-3.7,4.2-3.9,11.1-2.4,16.2c0.7,2.4,2.3,4.9,4.7,6.1c2.4,1.3,5.9,1.2,8.1-0.6c2.2-1.9,3.2-4.2,3.8-6.7h10.5
		c-0.3,7.6-4.6,15.4-12.1,18.3c-7.5,2.3-16.2,0.9-21.3-5.4c-7.1-8.7-7.2-23.3-1.7-32.8c4.2-6.9,11.5-9.8,19.6-8.9
		C135.5,30.2,139.8,32.2,142.8,36.4"/>
	<path class="st2" d="M146.1,72.7c0.4,0,0.8,0.1,1.2,0.3c0.4,0.2,0.7,0.5,0.9,0.9c0.2,0.4,0.3,0.8,0.3,1.2c0,0.4-0.1,0.8-0.3,1.2
		c-0.2,0.4-0.5,0.7-0.9,0.9c-0.4,0.2-0.8,0.3-1.2,0.3c-0.4,0-0.8-0.1-1.2-0.3c-0.4-0.2-0.7-0.5-0.9-0.9c-0.2-0.4-0.3-0.8-0.3-1.2
		c0-0.4,0.1-0.8,0.3-1.2c0.2-0.4,0.5-0.7,0.9-0.9C145.3,72.8,145.7,72.7,146.1,72.7z M146.1,73.1c-0.3,0-0.7,0.1-1,0.3
		c-0.3,0.2-0.6,0.4-0.8,0.7c-0.2,0.3-0.3,0.7-0.3,1c0,0.3,0.1,0.7,0.3,1s0.4,0.6,0.7,0.7c0.3,0.2,0.7,0.3,1,0.3c0.3,0,0.7-0.1,1-0.3
		c0.3-0.2,0.6-0.4,0.7-0.7s0.3-0.7,0.3-1c0-0.3-0.1-0.7-0.3-1c-0.2-0.3-0.4-0.6-0.8-0.7C146.7,73.2,146.4,73.1,146.1,73.1z
		 M145,76.5v-2.6h0.9c0.3,0,0.5,0,0.7,0.1c0.1,0,0.2,0.1,0.3,0.3c0.1,0.1,0.1,0.2,0.1,0.4c0,0.2-0.1,0.4-0.2,0.5s-0.3,0.2-0.5,0.2
		c0.1,0,0.2,0.1,0.2,0.1c0.1,0.1,0.2,0.3,0.4,0.5l0.3,0.5h-0.5l-0.2-0.4c-0.2-0.3-0.3-0.5-0.4-0.6c-0.1-0.1-0.2-0.1-0.3-0.1h-0.2
		v1.1H145z M145.4,75h0.5c0.2,0,0.4,0,0.5-0.1c0.1-0.1,0.1-0.2,0.1-0.3c0-0.1,0-0.1-0.1-0.2c0-0.1-0.1-0.1-0.2-0.1
		c-0.1,0-0.2,0-0.4,0h-0.5V75z"/>
	<g>
		<path class="st2" d="M24.2,81.5l1.8,5.3h-1.1l-0.4-1.1h-2.1L22,86.8h-1.1l1.9-5.3H24.2z M24.2,84.8l-0.7-2.2l-0.8,2.2H24.2z"/>
		<path class="st2" d="M27.4,85.7c0,0.2,0.2,0.5,0.6,0.5c0.4,0,0.6-0.2,0.6-0.4c0-0.2-0.1-0.3-0.5-0.4l-0.7-0.2
			c-0.3-0.1-0.9-0.3-0.9-1c0-0.7,0.7-1.1,1.6-1.1c0.8,0,1.4,0.3,1.4,1.1h-1c0-0.4-0.4-0.4-0.5-0.4c-0.3,0-0.5,0.1-0.5,0.4
			c0,0.2,0.2,0.3,0.5,0.4l0.7,0.2c0.7,0.2,1,0.5,1,1c0,0.6-0.5,1.3-1.7,1.3c-0.5,0-0.9-0.1-1.3-0.5c-0.2-0.3-0.3-0.5-0.3-0.7H27.4z"
			/>
		<path class="st2" d="M31,85.7c0,0.2,0.2,0.5,0.6,0.5c0.4,0,0.6-0.2,0.6-0.4c0-0.2-0.1-0.3-0.5-0.4L31,85.2c-0.3-0.1-0.9-0.3-0.9-1
			c0-0.7,0.7-1.1,1.6-1.1c0.8,0,1.4,0.3,1.4,1.1h-1c0-0.4-0.4-0.4-0.5-0.4c-0.3,0-0.5,0.1-0.5,0.4c0,0.2,0.2,0.3,0.5,0.4l0.7,0.2
			c0.7,0.2,1,0.5,1,1c0,0.6-0.5,1.3-1.7,1.3c-0.5,0-0.9-0.1-1.3-0.5C30,86.2,30,85.9,30,85.7H31z"/>
		<path class="st2" d="M35.6,83c1.3,0,1.9,0.9,1.9,1.9c0,1-0.6,2-1.9,2c-1,0-1.9-0.6-1.9-1.9C33.7,84.1,34.2,83,35.6,83z M35.6,86.1
			c0.5,0,0.8-0.3,0.8-1.3c0-0.5-0.1-1.2-0.8-1.2c-0.8,0-0.8,0.9-0.8,1.2C34.8,85.8,35.1,86.1,35.6,86.1z"/>
		<path class="st2" d="M40.3,84.4c0-0.1-0.1-0.7-0.5-0.7c-0.5,0-0.6,0.8-0.6,1.2c0,0.2,0,0.9,0.3,1.1c0.1,0.1,0.2,0.1,0.3,0.1
			c0.1,0,0.5-0.1,0.5-0.7h1.1c0,0.3-0.1,0.7-0.5,1.1c-0.3,0.2-0.6,0.3-1,0.3c-0.5,0-0.9-0.1-1.3-0.5c-0.3-0.4-0.5-0.9-0.5-1.4
			c0-1.7,1.2-1.9,1.7-1.9c0.7,0,1.5,0.4,1.5,1.4H40.3z"/>
		<path class="st2" d="M41.9,81.5h1.1v0.9h-1.1V81.5z M42,83.1H43v3.7H42V83.1z"/>
		<path class="st2" d="M46.2,86.8c0-0.2,0-0.4,0-0.5c-0.4,0.6-0.9,0.6-1.1,0.6c-0.5,0-0.8-0.2-0.9-0.3c-0.2-0.2-0.3-0.5-0.3-0.8
			s0.1-0.8,0.8-1.1c0.5-0.2,1.1-0.2,1.5-0.2c0-0.2,0-0.4-0.1-0.5c-0.1-0.3-0.4-0.3-0.5-0.3c-0.2,0-0.3,0.1-0.4,0.2
			C45,83.9,45,84.1,45,84.1H44c0-0.2,0-0.6,0.4-0.9c0.3-0.2,0.8-0.3,1.1-0.3c0.3,0,0.9,0.1,1.3,0.5c0.2,0.3,0.3,0.7,0.3,0.9l0,1.5
			c0,0.3,0,0.6,0.1,0.9H46.2z M44.9,85.6c0,0.2,0.2,0.5,0.5,0.5c0.2,0,0.4-0.1,0.5-0.2C46,85.7,46,85.4,46,85
			C45.4,85,44.9,85.2,44.9,85.6z"/>
		<path class="st2" d="M50.2,86.7c-0.3,0.1-0.7,0.1-0.8,0.1c-1.1,0-1.1-0.7-1.1-1v-2h-0.7v-0.7h0.7v-0.7l1.1-0.4v1.1h0.9v0.7h-0.9
			v1.7c0,0.3,0,0.5,0.5,0.5c0.2,0,0.2,0,0.4,0V86.7z"/>
		<path class="st2" d="M51.6,85.2c0,0.2,0,1,0.7,1c0.3,0,0.5-0.1,0.6-0.5h1c0,0.2-0.1,0.5-0.3,0.8c-0.3,0.3-0.7,0.4-1.3,0.4
			c-0.3,0-0.9-0.1-1.3-0.5c-0.3-0.3-0.5-0.8-0.5-1.4c0-0.6,0.1-1.3,0.8-1.7c0.3-0.2,0.6-0.3,1-0.3c0.5,0,1.1,0.2,1.5,0.9
			c0.2,0.5,0.2,1,0.2,1.3H51.6z M52.9,84.5c0-0.2,0-0.8-0.6-0.8c-0.5,0-0.7,0.4-0.7,0.8H52.9z"/>
		<path class="st2" d="M57.2,81.5h1.1v4.7c0,0.2,0,0.5,0,0.6h-1.1l0-0.5c-0.1,0.1-0.1,0.3-0.4,0.4c-0.3,0.2-0.6,0.2-0.7,0.2
			c-1,0-1.6-0.7-1.6-1.8c0-1.2,0.7-2,1.6-2c0.7,0,0.9,0.4,1,0.5V81.5z M56.3,86.1c0.3,0,0.6-0.2,0.7-0.4c0.2-0.3,0.2-0.7,0.2-0.9
			c0-0.7-0.3-1.1-0.8-1.1c-0.7,0-0.8,0.9-0.8,1.2C55.6,85.6,55.8,86.1,56.3,86.1z"/>
		<path class="st2" d="M61.2,81.5h2c0.3,0,0.9,0,1.3,0.2c0.5,0.3,0.6,0.8,0.6,1.1c0,0.2,0,0.5-0.3,0.8c0,0-0.3,0.3-0.6,0.4v0
			c0.8,0.1,1.1,0.7,1.1,1.3c0,0.6-0.4,1-0.8,1.2c-0.4,0.2-1.1,0.2-1.3,0.2h-2V81.5z M62.3,83.7h0.8c0.3,0,0.9,0,0.9-0.7
			c0-0.7-0.6-0.7-0.9-0.7h-0.8V83.7z M62.3,85.9h0.8c0.5,0,1.1,0,1.1-0.7c0-0.7-0.7-0.7-1.2-0.7h-0.6V85.9z"/>
		<path class="st2" d="M67.1,83.1v2.2c0,0.3,0,0.8,0.6,0.8c0.7,0,0.7-0.5,0.7-1.1v-1.9h1.1v2.4c0,0.8,0,0.9,0,1c0,0.1,0,0.2,0,0.3
			h-1l0-0.5c-0.1,0.2-0.4,0.6-1.1,0.6c-0.5,0-0.9-0.2-1.1-0.5c-0.2-0.3-0.2-0.8-0.2-1v-2.3H67.1z"/>
		<path class="st2" d="M70.5,81.5h1.1v0.9h-1.1V81.5z M70.5,83.1h1.1v3.7h-1.1V83.1z"/>
		<path class="st2" d="M72.5,81.5h1.1v5.3h-1.1V81.5z"/>
		<path class="st2" d="M77,81.5h1.1v4.7c0,0.2,0,0.5,0,0.6H77l0-0.5c-0.1,0.1-0.1,0.3-0.4,0.4c-0.3,0.2-0.6,0.2-0.7,0.2
			c-1,0-1.6-0.7-1.6-1.8c0-1.2,0.7-2,1.6-2c0.7,0,0.9,0.4,1,0.5V81.5z M76.1,86.1c0.3,0,0.6-0.2,0.7-0.4C77,85.4,77,85,77,84.9
			c0-0.7-0.3-1.1-0.8-1.1c-0.7,0-0.8,0.9-0.8,1.2C75.4,85.6,75.6,86.1,76.1,86.1z"/>
		<path class="st2" d="M79.8,85.2c0,0.2,0,1,0.7,1c0.3,0,0.5-0.1,0.6-0.5h1c0,0.2-0.1,0.5-0.3,0.8c-0.3,0.3-0.7,0.4-1.3,0.4
			c-0.3,0-0.9-0.1-1.3-0.5c-0.3-0.3-0.5-0.8-0.5-1.4c0-0.6,0.1-1.3,0.8-1.7c0.3-0.2,0.6-0.3,1-0.3c0.5,0,1.1,0.2,1.5,0.9
			c0.2,0.5,0.2,1,0.2,1.3H79.8z M81.2,84.5c0-0.2,0-0.8-0.6-0.8c-0.5,0-0.7,0.4-0.7,0.8H81.2z"/>
		<path class="st2" d="M83,84c0-0.2,0-0.7-0.1-0.9h1l0,0.7c0.1-0.3,0.4-0.8,1.3-0.7v1c-1.1-0.1-1.2,0.5-1.2,0.9v1.8H83V84z"/>
		<path class="st2" d="M86.6,85.7c0,0.2,0.2,0.5,0.6,0.5c0.4,0,0.6-0.2,0.6-0.4c0-0.2-0.1-0.3-0.5-0.4l-0.7-0.2
			c-0.3-0.1-0.9-0.3-0.9-1c0-0.7,0.7-1.1,1.6-1.1c0.8,0,1.4,0.3,1.4,1.1h-1c0-0.4-0.4-0.4-0.5-0.4c-0.3,0-0.5,0.1-0.5,0.4
			c0,0.2,0.2,0.3,0.5,0.4l0.7,0.2c0.7,0.2,1,0.5,1,1c0,0.6-0.5,1.3-1.7,1.3c-0.5,0-0.9-0.1-1.3-0.5c-0.2-0.3-0.3-0.5-0.3-0.7H86.6z"
			/>
		<path class="st2" d="M93.7,86.8c0-0.2,0-0.4,0-0.5c-0.4,0.6-0.9,0.6-1.1,0.6c-0.5,0-0.8-0.2-0.9-0.3c-0.2-0.2-0.3-0.5-0.3-0.8
			s0.1-0.8,0.8-1.1c0.5-0.2,1.1-0.2,1.5-0.2c0-0.2,0-0.4-0.1-0.5c-0.1-0.3-0.4-0.3-0.5-0.3c-0.2,0-0.3,0.1-0.4,0.2
			c-0.1,0.1-0.1,0.2-0.1,0.3h-1.1c0-0.2,0-0.6,0.4-0.9C92.2,83,92.7,83,93,83c0.3,0,0.9,0.1,1.3,0.5c0.2,0.3,0.3,0.7,0.3,0.9l0,1.5
			c0,0.3,0,0.6,0.1,0.9H93.7z M92.4,85.6c0,0.2,0.2,0.5,0.5,0.5c0.2,0,0.4-0.1,0.5-0.2c0.2-0.2,0.2-0.5,0.2-0.9
			C92.9,85,92.4,85.2,92.4,85.6z"/>
		<path class="st2" d="M95.6,83.7c0,0,0-0.4,0-0.7h1l0,0.6c0.1-0.2,0.4-0.6,1.2-0.6c0.7,0,1,0.4,1.1,0.7c0.1,0.2,0.1,0.4,0.1,1.1v2
			h-1.1v-2.3c0-0.2,0-0.3-0.1-0.4c-0.1-0.2-0.2-0.3-0.5-0.3c-0.2,0-0.4,0.1-0.6,0.3c-0.1,0.1-0.1,0.3-0.1,0.6v2.2h-1.1V83.7z"/>
		<path class="st2" d="M102.4,81.5h1.1v4.7c0,0.2,0,0.5,0,0.6h-1.1l0-0.5c-0.1,0.1-0.1,0.3-0.4,0.4c-0.3,0.2-0.6,0.2-0.7,0.2
			c-1,0-1.6-0.7-1.6-1.8c0-1.2,0.7-2,1.6-2c0.7,0,0.9,0.4,1,0.5V81.5z M101.6,86.1c0.3,0,0.6-0.2,0.7-0.4c0.2-0.3,0.2-0.7,0.2-0.9
			c0-0.7-0.3-1.1-0.8-1.1c-0.7,0-0.8,0.9-0.8,1.2C100.9,85.6,101.1,86.1,101.6,86.1z"/>
		<path class="st2" d="M109.4,83.2c0-0.2-0.1-0.9-0.9-0.9c-0.8,0-1.2,0.9-1.2,2c0,0.3,0,1.8,1.1,1.8c0.5,0,0.9-0.3,0.9-1h1.2
			c0,0.3-0.1,0.8-0.5,1.2c-0.5,0.5-1.1,0.6-1.5,0.6c-1.8,0-2.4-1.3-2.4-2.6c0-1.7,0.9-2.8,2.4-2.8c1.1,0,2,0.7,2,1.7H109.4z"/>
		<path class="st2" d="M113,83c1.3,0,1.9,0.9,1.9,1.9c0,1-0.6,2-1.9,2c-1,0-1.9-0.6-1.9-1.9C111.1,84.1,111.6,83,113,83z M113,86.1
			c0.5,0,0.8-0.3,0.8-1.3c0-0.5-0.1-1.2-0.8-1.2c-0.8,0-0.8,0.9-0.8,1.2C112.2,85.8,112.5,86.1,113,86.1z"/>
		<path class="st2" d="M115.8,83.7c0,0,0-0.4,0-0.7h1l0,0.6c0.1-0.2,0.4-0.6,1.2-0.6c0.7,0,1,0.4,1.1,0.7c0.1,0.2,0.1,0.4,0.1,1.1v2
			h-1.1v-2.3c0-0.2,0-0.3-0.1-0.4c-0.1-0.2-0.2-0.3-0.5-0.3c-0.2,0-0.4,0.1-0.6,0.3c-0.1,0.1-0.1,0.3-0.1,0.6v2.2h-1.1V83.7z"/>
		<path class="st2" d="M122.3,86.7c-0.3,0.1-0.7,0.1-0.8,0.1c-1.1,0-1.1-0.7-1.1-1v-2h-0.7v-0.7h0.7v-0.7l1.1-0.4v1.1h0.9v0.7h-0.9
			v1.7c0,0.3,0,0.5,0.5,0.5c0.2,0,0.2,0,0.4,0V86.7z"/>
		<path class="st2" d="M123,84c0-0.2,0-0.7-0.1-0.9h1l0,0.7c0.1-0.3,0.4-0.8,1.3-0.7v1c-1.1-0.1-1.2,0.5-1.2,0.9v1.8H123V84z"/>
		<path class="st2" d="M127.9,86.8c0-0.2,0-0.4,0-0.5c-0.4,0.6-0.9,0.6-1.1,0.6c-0.5,0-0.8-0.2-0.9-0.3c-0.2-0.2-0.3-0.5-0.3-0.8
			s0.1-0.8,0.8-1.1c0.5-0.2,1.1-0.2,1.5-0.2c0-0.2,0-0.4-0.1-0.5c-0.1-0.3-0.4-0.3-0.5-0.3c-0.2,0-0.3,0.1-0.4,0.2
			c-0.1,0.1-0.1,0.2-0.1,0.3h-1.1c0-0.2,0-0.6,0.4-0.9c0.3-0.2,0.8-0.3,1.1-0.3c0.3,0,0.9,0.1,1.3,0.5c0.2,0.3,0.3,0.7,0.3,0.9
			l0,1.5c0,0.3,0,0.6,0.1,0.9H127.9z M126.6,85.6c0,0.2,0.2,0.5,0.5,0.5c0.2,0,0.4-0.1,0.5-0.2c0.2-0.2,0.2-0.5,0.2-0.9
			C127.1,85,126.6,85.2,126.6,85.6z"/>
		<path class="st2" d="M131.7,84.4c0-0.1-0.1-0.7-0.5-0.7c-0.5,0-0.6,0.8-0.6,1.2c0,0.2,0,0.9,0.3,1.1c0.1,0.1,0.2,0.1,0.3,0.1
			c0.1,0,0.5-0.1,0.5-0.7h1.1c0,0.3-0.1,0.7-0.5,1.1c-0.3,0.2-0.6,0.3-1,0.3c-0.5,0-0.9-0.1-1.3-0.5c-0.3-0.4-0.5-0.9-0.5-1.4
			c0-1.7,1.2-1.9,1.7-1.9c0.7,0,1.5,0.4,1.5,1.4H131.7z"/>
		<path class="st2" d="M135.5,86.7c-0.3,0.1-0.7,0.1-0.8,0.1c-1.1,0-1.1-0.7-1.1-1v-2h-0.7v-0.7h0.7v-0.7l1.1-0.4v1.1h0.9v0.7h-0.9
			v1.7c0,0.3,0,0.5,0.5,0.5c0.2,0,0.2,0,0.4,0V86.7z"/>
		<path class="st2" d="M137.8,83c1.3,0,1.9,0.9,1.9,1.9c0,1-0.6,2-1.9,2c-1,0-1.9-0.6-1.9-1.9C135.9,84.1,136.3,83,137.8,83z
			 M137.8,86.1c0.5,0,0.8-0.3,0.8-1.3c0-0.5-0.1-1.2-0.8-1.2c-0.8,0-0.8,0.9-0.8,1.2C137,85.8,137.3,86.1,137.8,86.1z"/>
		<path class="st2" d="M140.5,84c0-0.2,0-0.7-0.1-0.9h1l0,0.7c0.1-0.3,0.4-0.8,1.3-0.7v1c-1.1-0.1-1.2,0.5-1.2,0.9v1.8h-1.1V84z"/>
		<path class="st2" d="M144.1,85.7c0,0.2,0.2,0.5,0.6,0.5c0.4,0,0.6-0.2,0.6-0.4c0-0.2-0.1-0.3-0.5-0.4l-0.7-0.2
			c-0.3-0.1-0.9-0.3-0.9-1c0-0.7,0.7-1.1,1.6-1.1c0.8,0,1.4,0.3,1.4,1.1h-1c0-0.4-0.4-0.4-0.5-0.4c-0.3,0-0.5,0.1-0.5,0.4
			c0,0.2,0.2,0.3,0.5,0.4l0.7,0.2c0.7,0.2,1,0.5,1,1c0,0.6-0.5,1.3-1.7,1.3c-0.5,0-0.9-0.1-1.3-0.5c-0.2-0.3-0.3-0.5-0.3-0.7H144.1z
			"/>
	</g>
	<path class="st0" d="M96.6,26.9c-6.6-7-13.1-11.9-21.4-15.3l-4.7,5.7c0,0,0,0,0,0c8.5,2.5,15.1,10.2,15.3,10.4l11.7,0
		C97.1,27.5,96.9,27.3,96.6,26.9z"/>
	<path class="st0" d="M66.9,21.8l-5.1,6l14.5,0C74.1,24.8,69.7,22.7,66.9,21.8z"/>
	<path class="st1" d="M85.7,27.8c-0.2-0.2-6.7-8-15.3-10.4l-3.6,4.4c2.9,0.9,7.2,3,9.5,6L85.7,27.8z"/>
</g>
</svg>
