<?xml version="1.0" encoding="utf-8"?>
<!-- Generator: Adobe Illustrator 18.1.1, SVG Export Plug-In . SVG Version: 6.00 Build 0)  -->
<svg version="1.1" id="Layer_1" xmlns="http://www.w3.org/2000/svg" xmlns:xlink="http://www.w3.org/1999/xlink" x="0px" y="0px"
	 width="219px" height="54px" viewBox="0 0 219 54" enable-background="new 0 0 219 54" xml:space="preserve">
<g>
	<g>
		<path d="M68.1,36.2h3.8L67,29.3l0.5-0.2c2.6-0.9,3.9-2.8,3.9-5.4c0-3.6-2.6-5.8-6.8-5.8h-8.2v18.3h3.2v-6.4h4L68.1,36.2z
			 M59.6,20.9h4.7c2.4,0,3.8,1.1,3.8,3c0,1.9-1.5,3.1-3.8,3.1h-4.7V20.9z"/>
		<path d="M80.7,22.1c-4.1,0-7.4,3.2-7.4,7.2c0,4,3.2,7.2,7.3,7.2c4.1,0,7.4-3.2,7.4-7.2C88,25.3,84.8,22.1,80.7,22.1z M80.7,33.8
			c-2.4,0-4.2-2-4.2-4.4c0-2.6,1.7-4.4,4.2-4.4c2.4,0,4.2,1.9,4.2,4.4C84.9,31.9,83.1,33.8,80.7,33.8z"/>
		<path d="M97.3,22.1c-4,0-7.2,3.2-7.2,7.2c0,4,3.1,7.2,7.1,7.2c2.9,0,4.5-1.3,5.6-2.6l-1.9-1.9c-1.2,1.2-2.3,1.7-3.6,1.7
			c-2.4,0-4.1-1.9-4.1-4.4c0-2.5,1.7-4.4,4-4.4c1.7,0,2.7,0.8,3.6,1.7l2-2.1C101.4,22.9,99.6,22.1,97.3,22.1z"/>
		<polygon points="118.3,22.4 114.4,22.4 108.7,28.5 108.7,17.2 105.6,17.2 105.6,36.2 108.7,36.2 108.7,32.3 110.6,30.3 
			114.8,36.2 118.5,36.2 112.8,28 		"/>
		<path d="M132.6,29.6c0-3.7-2-7.4-6.6-7.4c-3.8,0-6.7,3.1-6.7,7.2c0,4.2,3,7.2,7.1,7.2c2.3,0,4.2-0.9,5.6-2.6l-1.9-1.6
			c-1.2,1.2-2.3,1.6-3.7,1.6c-1.9,0-3.4-1.2-3.9-3.1l-0.1-0.4h10.2C132.5,30.3,132.6,29.8,132.6,29.6z M122.3,28.4l0.1-0.4
			c0.4-2,1.8-3.2,3.5-3.2c1.8,0,3.1,1.2,3.4,3.2l0.1,0.4H122.3z"/>
		<path d="M139,31.9v-6.8h3.7v-2.7H139v-3.8h-3.2v3.8H134v2.7h1.8v7.3c0,2.7,1.3,4,4,4c1.1,0,2-0.2,2.8-0.7v-2.6
			c-0.6,0.3-1.3,0.5-2,0.5C139.5,33.6,139,33.1,139,31.9z"/>
		<path d="M158.2,36.2h3.8l-4.9-6.9l0.5-0.2c2.6-0.9,3.9-2.8,3.9-5.4c0-3.6-2.6-5.8-6.8-5.8h-8.2v18.3h3.2v-6.4h4L158.2,36.2z
			 M149.7,20.9h4.7c2.4,0,3.8,1.1,3.8,3c0,1.9-1.5,3.1-3.8,3.1h-4.7V20.9z"/>
		<path d="M170.8,22.1c-4.1,0-7.4,3.2-7.4,7.2c0,4,3.2,7.2,7.3,7.2c4.1,0,7.4-3.2,7.4-7.2C178.1,25.3,174.9,22.1,170.8,22.1z
			 M170.8,33.8c-2.4,0-4.2-2-4.2-4.4c0-2.6,1.7-4.4,4.2-4.4c2.4,0,4.2,1.9,4.2,4.4C175,31.9,173.2,33.8,170.8,33.8z"/>
		<path d="M185.5,36.5c1.5,0,2.7-0.5,3.7-1.6l0.6-0.7v2h3.2V22.4h-3.2v7.8c0,2.1-1.2,3.4-3.1,3.4c-1.9,0-3-1.2-3-3.4v-7.8h-3.2v8.8
			C180.6,34.5,182.5,36.5,185.5,36.5z"/>
		<path d="M200.5,31.9v-6.8h3.7v-2.7h-3.7v-3.8h-3.2v3.8h-1.8v2.7h1.8v7.3c0,2.7,1.3,4,4,4c1.1,0,2-0.2,2.8-0.7v-2.6
			c-0.6,0.3-1.3,0.5-2,0.5C201,33.6,200.5,33.1,200.5,31.9z"/>
		<path d="M219,29.6c0-3.7-2-7.4-6.6-7.4c-3.8,0-6.7,3.1-6.7,7.2c0,4.2,3,7.2,7.1,7.2c2.3,0,4.2-0.9,5.6-2.6l0,0l-1.9-1.6
			c-1.2,1.2-2.3,1.6-3.7,1.6c-1.9,0-3.4-1.2-3.9-3.1l-0.1-0.4h10.2C219,30.3,219,29.8,219,29.6z M208.8,28.4l0.1-0.4
			c0.4-2,1.8-3.2,3.5-3.2c1.8,0,3.1,1.2,3.4,3.2l0.1,0.4H208.8z"/>
	</g>
	<g>
		<g>
			<path fill="#FF6600" d="M18.5,39c-0.6,0-1.1,0.5-1.1,1.1v10.2c0,0.6,0.5,1.1,1.1,1.1s1.1-0.5,1.1-1.1V40.1
				C19.6,39.5,19.1,39,18.5,39z"/>
			<path fill="#FF6600" d="M21.9,39c-0.6,0-1.1,0.5-1.1,1.1v12.8c0,0.6,0.5,1.1,1.1,1.1c0.6,0,1.1-0.5,1.1-1.1V40.1
				C23,39.5,22.5,39,21.9,39z"/>
			<path fill="#FF6600" d="M25.2,39c-0.6,0-1.1,0.5-1.1,1.1v10.2c0,0.6,0.5,1.1,1.1,1.1c0.6,0,1.1-0.5,1.1-1.1V40.1
				C26.3,39.5,25.8,39,25.2,39z"/>
		</g>
		<g>
			<path d="M21.9,25.2L21.9,25.2c-0.7,0-1.3,0.5-1.3,1.2v7.9c0,0.7,0.5,1.2,1.2,1.2h0.1c0.7,0,1.2-0.5,1.2-1.2v-7.9
				C23.1,25.7,22.6,25.2,21.9,25.2z"/>
			<path d="M35,37.9c0.1,0,0.1,0,0.2,0c0.3,0,0.6,0.1,0.9-0.1c0.6-0.3,0.6-1.8,0.6-1.8c0-5.5-3.1-9.1-5-10.9
				c0.1-0.6,0.1-1.1,0.2-1.7c0.4-5.5-0.6-13.7-7.4-21.6c-0.2-0.3-1.1-1.2-1.3-1.4C22.7,0.2,22.3,0,21.9,0c-0.4,0-0.9,0.2-1.3,0.5
				c0,0-0.6,0.6-0.6,0.6c-7.3,8-8.4,16.5-8,22.3c0,0.6,0.1,1.2,0.2,1.7c-0.8,0.7-5,4.9-5,11.4l0,0.1c0,0.4,0,1,0.4,1.2
				C7.7,37.9,7.9,38,8.1,38c0.1,0,0.2,0,0.4,0c0.1,0,0.1,0,0.2,0c0.4-0.1,1-0.3,1.7-0.7c1.2-0.6,3.1-1.4,5.7-2
				c0.2,0,0.6-0.2,0.8-0.5c0.5-0.6,0.1-1.5,0.1-1.5c0,0-2.1-4.1-2.5-9.9c-0.5-7.6,1.9-14.5,7.3-20.4l0,0l0.1-0.2L22.1,3l0-0.1
				c5.3,5.9,7.8,12.7,7.2,20.3c-0.4,5.8-2.5,9.9-2.5,9.9c0,0-0.4,0.8,0.1,1.5c0.2,0.3,0.6,0.5,0.8,0.5c3.1,0.7,4.8,1.5,5.9,2.1
				C34.2,37.6,34.6,37.8,35,37.9z M29.6,33.1c0.5-1.1,1-2.8,1.5-4.9c1.2,1.5,2.6,3.7,3,6.6C32.7,34.1,31.1,33.5,29.6,33.1z
				 M14.2,33.1c-1.8,0.5-3.1,1.1-4.5,1.7c0.3-2.9,1.7-5.2,3-6.6C13.1,30.3,13.7,32,14.2,33.1z"/>
			<path d="M2.5,27.3c0-6.3,3.2-12.2,8.5-15.7l0,0l0-0.1c0.4-1.1,0.8-2.1,1.3-3.2l0.2-0.5l-0.5,0.2C4.7,11.6,0,19.2,0,27.3
				c0,9.3,5.9,17.4,14.7,20.3l0.2,0.1V45l-0.1,0C7.4,42.3,2.5,35.2,2.5,27.3z"/>
			<path d="M31.8,8.3L31.4,8l0.2,0.5c0.5,1,1,2.1,1.3,3.2l0,0.1l0,0c5.1,3.5,8.1,9.3,8.1,15.5c0,7.7-4.9,14.8-12.1,17.6L28.7,45
				l0,0.2l0,2v0.4l0.1,0l0.4-0.1v0c8.6-3,14.4-11,14.4-20.1C43.5,19.2,39.1,11.9,31.8,8.3z"/>
		</g>
	</g>
</g>
</svg>
